PathFileType	4	(X/Y/Z)	/Users/itak/Documents/Research/Walk-IL/dataset/trc/00222_00009.trc
DataRate	CameraRate	NumFrames	NumMarkers	Units	OrigDataRate	OrigDataStartFrame	OrigNumFrames
100.000000	100.000000	4	53	mm	100.000000	0	477
Frame#	Time	RPSI			LPSI			L3			STRN			T10			C7			CLAV			RBAK			LBAK			LSHO			LUPA			LAEL			LAOL			LWTS			LWPS			LFRA			LIFD			LHPS			LHTS			RSHO			RUPA			RAEL			RAOL			RWTS			RWPS			RFRA			RIFD			RHTS			RHPS			RBHD			LFHD			RFHD			LBHD			LHIP			RHIP			RASI			LASI			LKNE			LTHI			LANK			LTIP			LTOE			LMT1			LMT5			LHEE			RKNE			RANK			RTIP			RTOE			RMT1			RMT5			RHEE			RTHI			
		X1	Y1	Z1	X2	Y2	Z2	X3	Y3	Z3	X4	Y4	Z4	X5	Y5	Z5	X6	Y6	Z6	X7	Y7	Z7	X8	Y8	Z8	X9	Y9	Z9	X10	Y10	Z10	X11	Y11	Z11	X12	Y12	Z12	X13	Y13	Z13	X14	Y14	Z14	X15	Y15	Z15	X16	Y16	Z16	X17	Y17	Z17	X18	Y18	Z18	X19	Y19	Z19	X20	Y20	Z20	X21	Y21	Z21	X22	Y22	Z22	X23	Y23	Z23	X24	Y24	Z24	X25	Y25	Z25	X26	Y26	Z26	X27	Y27	Z27	X28	Y28	Z28	X29	Y29	Z29	X30	Y30	Z30	X31	Y31	Z31	X32	Y32	Z32	X33	Y33	Z33	X34	Y34	Z34	X35	Y35	Z35	X36	Y36	Z36	X37	Y37	Z37	X38	Y38	Z38	X39	Y39	Z39	X40	Y40	Z40	X41	Y41	Z41	X42	Y42	Z42	X43	Y43	Z43	X44	Y44	Z44	X45	Y45	Z45	X46	Y46	Z46	X47	Y47	Z47	X48	Y48	Z48	X49	Y49	Z49	X50	Y50	Z50	X51	Y51	Z51	X52	Y52	Z52	X53	Y53	Z53	

1	0	-1176.079345703125	1055.921752929688	-118.3083724975586	-1181.797607421875	1060.10791015625	1.980180382728577	-1171.27490234375	1131.881958007812	-41.24507904052734	-1411.377319335938	1332.041137695312	-45.61365509033203	-1160.142578125	1256.6767578125	-46.89046096801758	-1205.11083984375	1521.161987304688	-42.77185440063477	-1377.922607421875	1447.838012695312	-45.85519027709961	-1135.629028320312	1378.867431640625	-115.1245422363281	-1190.450561523438	1481.730346679688	68.47171020507812	-1281.161376953125	1489.141723632812	124.0605545043945	-1257.3173828125	1369.94140625	204.1321411132812	-1277.892211914062	1158.97607421875	229.0132141113281	-1203.201293945312	1143.652587890625	184.5390014648438	-1350.300170898438	916.3150024414062	175.5758209228516	-1328.49609375	905.4865112304688	257.0564575195312	-1296.9814453125	1051.85302734375	244.6230773925781	-1335.502197265625	721.382080078125	194.4985656738281	-1335.38232421875	815.7403564453125	255.7599639892578	-1375.121215820312	812.305419921875	200.6116943359375	-1261.5361328125	1485.3056640625	-212.4751281738281	-1243.282836914062	1419.582641601562	-279.3372497558594	-1238.108764648438	1137.887084960938	-317.0075988769531	-1202.3134765625	1129.2158203125	-229.2109985351562	-1380.372436523438	928.4765014648438	-273.72509765625	-1328.949462890625	912.6971435546875	-338.2327270507812	-1267.285522460938	1070.701049804688	-329.1758728027344	-1400.23095703125	735.6726684570312	-267.1609497070312	-1423.194702148438	808.7752685546875	-287.7473754882812	-1371.518676757812	806.4811401367188	-338.6718139648438	-1221.428100585938	1666.290405273438	-94.23921966552734	-1413.886596679688	1750.076049804688	-3.516738176345825	-1411.735473632812	1747.700439453125	-103.7802352905273	-1267.628540039062	1684.43017578125	37.37529373168945	-1287.939697265625	995.9564208984375	138.4042663574219	-1269.655151367188	1013.632507324219	-227.4028778076172	-1367.77587890625	1057.35546875	-195.3799133300781	-1385.5595703125	1037.940795898438	85.14791107177734	-1311.80322265625	509.7396850585938	88.1195068359375	-1313.387817382812	653.099853515625	122.5047302246094	-1236.276489257812	40.41513061523438	70.58751678466797	-1266.155517578125	287.5706176757812	91.84418487548828	-1449.343627929688	46.40673065185547	9.472386360168457	-1379.712524414062	41.34511947631836	-32.16217803955078	-1364.636474609375	40.70573043823242	83.83827972412109	-1172.731689453125	47.69356918334961	20.68670272827148	-1294.68505859375	519.2859497070312	-188.5570526123047	-1217.5693359375	40.67266464233398	-159.3470611572266	-1297.735717773438	404.0210876464844	-170.0579681396484	-1430.364868164062	47.19281387329102	-119.9923553466797	-1375.083740234375	45.90036010742188	-76.70805358886719	-1326.733642578125	40.7430534362793	-187.3578796386719	-1156.444458007812	42.50416564941406	-98.30783081054688	nan	nan	nan	
2	0.01	-1176.029296875	1055.925170898438	-118.3514099121094	-1181.814208984375	1060.108642578125	1.949621677398682	-1171.33203125	1131.91552734375	-41.2913703918457	-1411.475830078125	1332.005126953125	-45.70672607421875	-1160.20263671875	1256.720581054688	-46.9427375793457	-1205.26904296875	1521.191162109375	-42.78162002563477	-1377.967529296875	1447.833984375	-45.8797721862793	-1135.710327148438	1378.943237304688	-115.1571960449219	-1190.59423828125	1481.748657226562	68.45970153808594	-1281.2939453125	1489.11767578125	124.0122375488281	-1257.344482421875	1369.99609375	204.0997314453125	-1277.693359375	1158.984497070312	229.1241607666016	-1203.10498046875	1143.7001953125	184.5149993896484	-1349.942993164062	916.2349243164062	175.9451751708984	-1328.032592773438	905.4872436523438	257.3805541992188	-1296.735595703125	1051.878051757812	244.744384765625	-1334.833984375	721.289306640625	194.975830078125	-1334.743530273438	815.7613525390625	256.1296691894531	-1374.54736328125	812.2289428710938	201.0717468261719	-1261.61962890625	1485.338256835938	-212.5020751953125	-1243.32080078125	1419.637817382812	-279.3739929199219	-1238.039794921875	1137.97705078125	-317.1681518554688	-1202.267333984375	1129.267333984375	-229.3518371582031	-1380.1162109375	928.4312133789062	-274.0356750488281	-1328.739868164062	912.7554321289062	-338.5811462402344	-1267.074340820312	1070.773559570312	-329.3541870117188	-1399.892822265625	735.6246948242188	-267.6244812011719	-1422.796508789062	808.7029418945312	-288.1252136230469	-1371.123168945312	806.4684448242188	-339.0414428710938	-1221.627685546875	1666.33642578125	-94.22707366943359	-1414.116577148438	1749.998168945312	-3.59574294090271	-1411.935668945312	1747.628295898438	-103.8199920654297	-1267.876220703125	1684.446533203125	37.37784576416016	-1288.012084960938	995.95849609375	138.3192443847656	-1269.58056640625	1013.619079589844	-227.4923706054688	-1367.866088867188	1057.34521484375	-195.4869232177734	-1385.647827148438	1037.955078125	85.06607818603516	-1311.836303710938	509.7234802246094	88.06480407714844	-1313.436645507812	653.1156005859375	122.4534378051758	-1236.276611328125	40.41644287109375	70.58074188232422	-1266.170043945312	287.5773620605469	91.80952453613281	-1449.346313476562	46.40869140625	9.471676826477051	-1379.712646484375	41.34738540649414	-32.1629638671875	-1364.639770507812	40.70806503295898	83.83718872070312	-1172.741577148438	47.697509765625	20.67141151428223	-1294.70068359375	519.2738647460938	-188.595947265625	-1217.597778320312	40.69185256958008	-159.3631134033203	-1297.730346679688	404.00927734375	-170.0882110595703	-1430.368041992188	47.19380187988281	-119.9813461303711	-1375.087768554688	45.90615463256836	-76.70516967773438	-1326.730346679688	40.73564147949219	-187.3529205322266	-1156.4462890625	42.49975967407227	-98.30342864990234	nan	nan	nan	
3	0.02	-1175.9755859375	1055.931640625	-118.408561706543	-1181.825561523438	1060.11376953125	1.910034656524658	-1171.413330078125	1131.9638671875	-41.35427856445312	-1411.59716796875	1331.959350585938	-45.8198356628418	-1160.273681640625	1256.771728515625	-47.00823211669922	-1205.471801757812	1521.228515625	-42.79814147949219	-1378.026733398438	1447.828369140625	-45.91092681884766	-1135.81982421875	1379.031982421875	-115.2021636962891	-1190.772094726562	1481.770751953125	68.43850708007812	-1281.458129882812	1489.08935546875	123.9489059448242	-1257.404052734375	1370.0517578125	204.0578460693359	-1277.483520507812	1158.994506835938	229.2468414306641	-1203.008056640625	1143.75537109375	184.4891052246094	-1349.553466796875	916.1494750976562	176.3837127685547	-1327.529541015625	905.495361328125	257.7514038085938	-1296.469482421875	1051.907470703125	244.8848724365234	-1334.088012695312	721.1953125	195.5398864746094	-1334.054809570312	815.7827758789062	256.550048828125	-1373.935302734375	812.1458740234375	201.5888671875	-1261.73193359375	1485.37939453125	-212.5374755859375	-1243.380493164062	1419.708984375	-279.4249877929688	-1237.957641601562	1138.090942382812	-317.374267578125	-1202.2216796875	1129.330688476562	-229.5318756103516	-1379.802978515625	928.3712768554688	-274.4381713867188	-1328.482666015625	912.8272705078125	-339.0286254882812	-1266.849487304688	1070.867553710938	-329.5931701660156	-1399.4794921875	735.5639038085938	-268.2341613769531	-1422.3056640625	808.6098022460938	-288.6190185546875	-1370.638061523438	806.4567260742188	-339.5269470214844	-1221.888671875	1666.394775390625	-94.22245788574219	-1414.404296875	1749.906494140625	-3.683753967285156	-1412.195556640625	1747.530883789062	-103.8725128173828	-1268.167602539062	1684.461547851562	37.37467956542969	-1288.08349609375	995.966064453125	138.2184600830078	-1269.4853515625	1013.604675292969	-227.6000518798828	-1367.967407226562	1057.333374023438	-195.614501953125	-1385.755249023438	1037.970092773438	84.96476745605469	-1311.873413085938	509.7045593261719	87.99620056152344	-1313.49072265625	653.136474609375	122.387077331543	-1236.275756835938	40.41907119750977	70.56959533691406	-1266.184204101562	287.5883483886719	91.76644897460938	-1449.3486328125	46.41024017333984	9.471064567565918	-1379.712768554688	41.34857940673828	-32.16327285766602	-1364.643676757812	40.71057891845703	83.83440399169922	-1172.750610351562	47.70299530029297	20.65478897094727	-1294.725952148438	519.2601928710938	-188.6463317871094	-1217.623168945312	40.70866775512695	-159.3779907226562	-1297.7255859375	403.9936218261719	-170.1244964599609	-1430.372192382812	47.19829559326172	-119.9647903442383	-1375.091186523438	45.91080093383789	-76.70246887207031	-1326.728515625	40.72765731811523	-187.3502197265625	-1156.447021484375	42.49436950683594	-98.30036163330078	nan	nan	nan	
4	0.03	-1175.926879882812	1055.939819335938	-118.4773101806641	-1181.826171875	1060.125854492188	1.862512230873108	-1171.51806640625	1132.026245117188	-41.43332672119141	-1411.734130859375	1331.906494140625	-45.94535827636719	-1160.35009765625	1256.82666015625	-47.08414459228516	-1205.711669921875	1521.27294921875	-42.82258987426758	-1378.09912109375	1447.821411132812	-45.94736862182617	-1135.956176757812	1379.126586914062	-115.2590103149414	-1190.976318359375	1481.795532226562	68.40689849853516	-1281.646240234375	1489.05810546875	123.8715896606445	-1257.504028320312	1370.099731445312	204.0071258544922	-1277.291381835938	1159.005615234375	229.3680419921875	-1202.925903320312	1143.813110351562	184.4642181396484	-1349.18212890625	916.0685424804688	176.8534088134766	-1327.04736328125	905.5123901367188	258.1342163085938	-1296.216430664062	1051.938842773438	245.0327911376953	-1333.355224609375	721.112548828125	196.1464996337891	-1333.401489257812	815.8025512695312	256.984375	-1373.359741210938	812.0641479492188	202.1125030517578	-1261.872436523438	1485.42724609375	-212.5807647705078	-1243.465087890625	1419.794189453125	-279.4903259277344	-1237.868896484375	1138.224487304688	-317.6187744140625	-1202.1826171875	1129.402954101562	-229.7449951171875	-1379.452758789062	928.2978515625	-274.9225463867188	-1328.191772460938	912.9088745117188	-339.5609436035156	-1266.63720703125	1070.980346679688	-329.8897705078125	-1399.012939453125	735.4925537109375	-268.9761047363281	-1421.753051757812	808.4993896484375	-289.2200622558594	-1370.093505859375	806.4496459960938	-340.1200256347656	-1222.204223632812	1666.463012695312	-94.23063659667969	-1414.737060546875	1749.808959960938	-3.773056983947754	-1412.508056640625	1747.410278320312	-103.9359359741211	-1268.483032226562	1684.473022460938	37.36307144165039	-1288.14697265625	995.9800415039062	138.1079254150391	-1269.373657226562	1013.590454101562	-227.7198486328125	-1368.069946289062	1057.320678710938	-195.7543029785156	-1385.87646484375	1037.984497070312	84.849365234375	-1311.911010742188	509.6843872070312	87.91612243652344	-1313.544555664062	653.1616821289062	122.3080215454102	-1236.273803710938	40.4232177734375	70.55424499511719	-1266.196166992188	287.6036682128906	91.71652984619141	-1449.350341796875	46.41095733642578	9.470532417297363	-1379.712890625	41.34817886352539	-32.16292953491211	-1364.647216796875	40.71315002441406	83.83018493652344	-1172.757690429688	47.70945358276367	20.63794708251953	-1294.7626953125	519.2459716796875	-188.7069854736328	-1217.6416015625	40.72045516967773	-159.3895874023438	-1297.72265625	403.9743957519531	-170.1644134521484	-1430.377075195312	47.20702743530273	-119.9417114257812	-1375.093383789062	45.91359329223633	-76.70009613037109	-1326.729248046875	40.72138595581055	-187.3506164550781	-1156.446411132812	42.48901748657227	-98.29953765869141	nan	nan	nan	
